# xmcd CD database file
#
# Track frame offsets:
#	150
#	25840
#	36997
#	50120
#	71762
#	84720
#	102210
#	115552
#	133615
#	154132
#	172837
#	190782
#	208930
#	228137
#	245240
#	258865
#
# Disc length: 3689 seconds
#
# Revision: 6
# Processed by: cddbd v1.5.2PL0 Copyright (c) Steve Scherf et al.
# Submitted via: CDex 1.70beta3
#
DISCID=db0e6710
DTITLE=吉幾三 - 吉幾三のおもちゃ箱 ～TVアニメ・CM＆コミック集～
DYEAR=2004
DGENRE=Comedy
TTITLE0=と・も・子…
TTITLE1=俺はぜったい！プレスリー
TTITLE2=Dream (新日本ハウスCMソングより)
TTITLE3=サマザマね…ネ
TTITLE4=ゲゲゲの鬼太郎 (CXTVアニメ主題歌)
TTITLE5=風に吹かれて… (ワークマンCMソングより)
TTITLE6=俺ら東京さ行ぐだ
TTITLE7=おばけがイクゾ～ (ゲゲゲの鬼太郎挿入歌)
TTITLE8=ドダバ富士 幾三ちゃんとHitomiちゃん ('93 FNS系キャンペーンソング)
TTITLE9=おじさんサンバ
TTITLE10=出張物語 デュエット：川中美幸
TTITLE11=みちのくブルース
TTITLE12=お・じ・さ・ん
TTITLE13=お父さんのタンゴ
TTITLE14=これが本当のゴルフだ！！
TTITLE15=TOFU［豆腐］ ～NHKみんなのうた～より
EXTD=YEAR: 2004
EXTT0=
EXTT1=
EXTT2=
EXTT3=
EXTT4=
EXTT5=
EXTT6=
EXTT7=
EXTT8=
EXTT9=
EXTT10=
EXTT11=
EXTT12=
EXTT13=
EXTT14=
EXTT15=
PLAYORDER=
